# xmcd
#
# Track frame offsets:
#	150
#	12832
#	22657
#	39636
#	51128
#	63680
#	74745
#	92777
#	103966
#	117446
#	136883
#	156710
#	169542
#	180811
#	199933
#	210565
#	226975
#	239604
#	261514
#	272888
#	283473
#	295122
#	309067
#	320269
#
# Disc length: 4451 seconds
#
# Revision: 0
# Processed by: cddbd v1.4PL0 Copyright (c) Steve Scherf et al.
# Submitted via: audiograbber 1.80
#
DISCID=6a116118
DTITLE=Aretha Franlkin - Lady Soul (1-14) and Aretha Now (15-25)
DYEAR=1900
DGENRE=
TTITLE0=Chain of Fools
TTITLE1=Money Won`t Change You
TTITLE2=People Get Ready
TTITLE3=Niki Hoeky
TTITLE4=(You Make Me Fell Like)  A Natural Woman
TTITLE5=Since You`ve Been Gone (Sweet Sweet Baby)
TTITLE6=Good to Me As I am To You
TTITLE7=Come Back Baby
TTITLE8=Groovin`
TTITLE9=Ain`t No Way
TTITLE10=Chain of Fools (Uneditet Version)
TTITLE11=(You Make Me Fell Like)  A Natural Woman (Mono Single Version)
TTITLE12=Since You`ve Been Gone (Sweet Sweet Baby) (Mono Single Version)
TTITLE13=Ain`t No Way (Mono Single Version)
TTITLE14=Think
TTITLE15=I Say a Little Prayer
TTITLE16=See Saw
TTITLE17=Night Time is the Right Time
TTITLE18=You Send Me
TTITLE19=You`re a Sweet Sweet Man
TTITLE20=I Take What I Want
TTITLE21=Hello Sunshine
TTITLE22=A Change
TTITLE23=I Can`t See Myself Leaving You
EXTD=
EXTT0=
EXTT1=
EXTT2=
EXTT3=
EXTT4=
EXTT5=
EXTT6=
EXTT7=
EXTT8=
EXTT9=
EXTT10=
EXTT11=
EXTT12=
EXTT13=
EXTT14=
EXTT15=
EXTT16=
EXTT17=
EXTT18=
EXTT19=
EXTT20=
EXTT21=
EXTT22=
EXTT23=
PLAYORDER=
